<svg id="Layer_1" data-name="Layer 1" xmlns="http://www.w3.org/2000/svg" viewBox="0 0 1000 1000"><defs><style>.cls-1,.cls-2{fill:#fff;}.cls-2{fill-rule:evenodd;}</style></defs><path class="cls-1" d="M950,10a40,40,0,0,1,40,40V950a40,40,0,0,1-40,40H50a40,40,0,0,1-40-40V50A40,40,0,0,1,50,10H950m0-10H50A50,50,0,0,0,0,50V950a50,50,0,0,0,50,50H950a50,50,0,0,0,50-50V50A50,50,0,0,0,950,0Z"/><path class="cls-2" d="M594.88,850h0Zm0,0h0Zm0,0a0,0,0,0,0,0,0s-.06,0-.06,0l0,0h0ZM450,849.24s0,0-.06,0Zm-.08-.06h0Zm17.52-3.34v0Zm0-.09v.06h0Zm0,0,0-.06v0Zm.05-.13v0Zm279.06-3.88v0s0,0,0,0,0,0,0,.06v0Zm0-.09v0Zm-2.11-7.56h0Zm0-.06a0,0,0,0,0,0,0l0,0,0,0A0,0,0,0,0,744.43,834Zm-149.3-4h0a0,0,0,0,0,0,0,0,0,0,0,1,0,0h0Zm.13,0h0ZM319,791.11h0v0l0,.06Zm-3.42-10.51v0Zm0,0a.08.08,0,0,1,0-.05v0h0Zm151.25-17.79v0Zm0-.08v0Zm-15.49,0v0Zm157.94,71.22,0,0-.16-.33,0,0-.17-.34a.75.75,0,0,1-.07-.12,6,6,0,0,0-.53-.82.07.07,0,0,0,0-.06.94.94,0,0,1,0-1c3.25-6.23,35.35-67.7,41.57-79.57a3,3,0,0,1,2.88-1.64,11.42,11.42,0,0,0,1.2.1h.27a12.5,12.5,0,0,0,4.21-.86,2.83,2.83,0,0,1,3.21.94c8.23,10.35,49.73,62.6,63.48,79.91a3.63,3.63,0,0,1,.49,3.6,3,3,0,0,1-2.72,2H610.27c-.2,0-.33-.12-.42-.34A13.12,13.12,0,0,0,609.28,833.88Zm34.73-88c-3.09,6-35.32,67.58-41.49,79.39a2.93,2.93,0,0,1-2.8,1.64,10.76,10.76,0,0,0-6.77,1.67c-.4.27-1,.67-1.06.76l0,0c-.35.28-.65.59-1,.89-.1.15-.24.27-.34.4l-.14.14,0,0c-.06.07-.22.28-.36.43l0,.06a3.1,3.1,0,0,0-.33.45s0,0-.11.16c0,0,0,0-.06,0a2.57,2.57,0,0,1-.19.28c0,.09,0-.06-.24.39a.53.53,0,0,0-.08.16s-.06.06-.06.09-.33.61-.51,1v0a2.17,2.17,0,0,0-.12.21c0,.07,0,.07,0,.1l-.14.33a1.66,1.66,0,0,1-1.49,1.06H489.88A3.11,3.11,0,0,1,487,833a3.47,3.47,0,0,1,1.6-3.76C524.91,809.41,634.42,749.61,643,744.9a.69.69,0,0,1,.92.22A.72.72,0,0,1,644,745.93Zm20.2-5.22v0ZM651.74,722.2h0a.11.11,0,0,1,.09,0l-.06,0h-.07Zm.18,0h0ZM463.6,827a3.46,3.46,0,0,1-1.61-3V774a3.42,3.42,0,0,1,1.69-3l.3-.15a.14.14,0,0,1,.11-.06,11.34,11.34,0,0,0,2.09-1.83,8,8,0,0,0,1-1.3s0-.09.06-.12.24-.36.27-.4,0-.06,0-.09a8.52,8.52,0,0,0,.51-1.06,9.7,9.7,0,0,0,.44-1.09v0a2.2,2.2,0,0,0,.13-.49s0-.06,0-.09a5.13,5.13,0,0,0,.19-.79.27.27,0,0,0,0-.15c0-.12.08-.55.08-.55a4.93,4.93,0,0,0,.11-1.27v-.07a.93.93,0,0,1,.43-.75l103.43-64.3a2.7,2.7,0,0,1,3.1.16,12.22,12.22,0,0,0,7,2.45h.19a12,12,0,0,0,7.09-2.52,2.75,2.75,0,0,1,3.34,0c7.72,5.74,38.12,28.24,45.49,33.7a3.49,3.49,0,0,1,1.31,3.15c0,.52-.06,1.07-.06,1.59a3.38,3.38,0,0,1-1.68,3L470.06,830a2.77,2.77,0,0,1-3.36-.59A13.31,13.31,0,0,0,463.6,827ZM494,699a11.21,11.21,0,0,0,7.31-2.79.26.26,0,0,1,.11-.09c.14-.15.65-.61,1-1.06l.07-.09c.06-.06.24-.31.41-.52,0,0,.06-.06.09-.06s.13-.22.16-.28,0,0,0,0a12.45,12.45,0,0,0,1.42-2.46.83.83,0,0,0,.05-.18c.08-.16.22-.55.27-.64v-.06a2.06,2.06,0,0,0,.14-.4c0-.06.05-.09.05-.15a4.35,4.35,0,0,0,.19-.7s0-.09.14-.55a.09.09,0,0,1,.08-.08h52.39a3,3,0,0,1,2.88,2.51,3.46,3.46,0,0,1-1.44,3.77l-82.85,51.51a2.78,2.78,0,0,1-3.54-.51,3.65,3.65,0,0,1-.6-3.92c5.74-12.81,15.5-34.6,18.54-41.4a2.94,2.94,0,0,1,2.77-1.83ZM259.62,680.4l0,0Zm-.05-.07h0Zm333.25-.79v0Zm0-.08v0h0Zm-92-1.22,0,0h0Zm-.06-.09h0s0,0,0,0,0,0,0,0,0,0,0,0A0,0,0,0,1,500.74,678.15Zm0-.06h0Zm-224-.88v0Zm0,0a.1.1,0,0,0,0-.06.1.1,0,0,1,0-.06s0,0,0,.06l-.06.06Zm.06-.19v0Zm213.48-1h0Zm.05,0h0s0,0,0,0h0Zm.12-.06h0Zm88.4-2.3h0Zm0,0,0,0Zm87,69.27a.48.48,0,0,1,0-.55c.32-.66.68-1.55.7-1.63.3-.8.57-1.89.63-2.1a.25.25,0,0,0,0-.12,16.76,16.76,0,0,0,.33-5.28,11.59,11.59,0,0,0-.27-1.7,3.59,3.59,0,0,1,1.08-3.41c9.57-8.34,59-51.48,64.95-56.7a1.11,1.11,0,0,1,1.25-.15h0a1.5,1.5,0,0,1,.82,1.36c0,13.42-.09,155.58-.09,157.55,0,0,0,.07,0,.07Zm-409.64-73,0,0Zm0,0v0ZM340.52,783.1a1.67,1.67,0,0,1-.95-1.5v0a27.93,27.93,0,0,0-.38-3s0-.09-.05-.12a5,5,0,0,0-.25-.88,3.68,3.68,0,0,1,.57-3.22c9.13-12.17,70.12-93.38,79.76-106.16a2.82,2.82,0,0,1,3-1.09,5.72,5.72,0,0,0,.92.18,3.1,3.1,0,0,1,2.37,2.18c3.81,12.12,23.64,75.44,26.09,83.21a1.54,1.54,0,0,1-.22,1.34.09.09,0,0,0,0,.06,4,4,0,0,1-.27.4s0,.06-.05.06c-.3.48-.6,1.06-.63,1.12-.24.46-.51,1.16-.51,1.16-.19.48-.41,1.27-.41,1.27v0a12.74,12.74,0,0,0,0,5.89l.19.72s.16.49.22.61,0,.06,0,.09c.14.37.28.61.46,1l.11.21v0c.19.33.44.73.44.73.32.51.22.33.38.57l.16.21c.33.43.74.89.76.92a12,12,0,0,0,1.12,1s.57.42.73.52.05,0,.08.06a.71.71,0,0,1,.3.64v51.88a3.35,3.35,0,0,1-1.84,3.06,13.48,13.48,0,0,0-4.27,3.16,2.71,2.71,0,0,1-3.21.7C431.5,824.07,350.23,787.46,340.52,783.1ZM459.6,749.94a1.29,1.29,0,0,1-1.14-.94c-2.68-8.62-23.28-74.25-26-83.06a1.46,1.46,0,0,1,.38-1.54l0,0c.08-.09.37-.36.46-.45s0,0,.05,0a2.17,2.17,0,0,1,2.5-.52c7.58,3.44,41.91,19,46.15,20.95a.71.71,0,0,1,.38.7v.06c0,.15,0,.73,0,1.16a7.9,7.9,0,0,0,.06.9,10.06,10.06,0,0,0,.13,1.07s0,.36.11.64c0,0,.13.6.24,1a9.22,9.22,0,0,0,.3.94l.14.33v0a11.93,11.93,0,0,0,.95,1.89,3.69,3.69,0,0,1,.16,3.33c-3.94,8.8-20.82,46.51-23.61,52.79a1.31,1.31,0,0,1-1.26.79ZM748.91,661v0a.1.1,0,0,1,0,.06A0,0,0,0,1,748.91,661Zm0-.12v0Zm-19.62-3.49s0,0,0-.07v0A.11.11,0,0,0,729.29,657.39Zm16.82-6.53v0Zm-.05,0v0l0,0s0,0,0,.07,0,0,0,0S746.08,650.83,746.06,650.83Zm-.06-.1v0Zm-10.68-2.15h0s0,0,.06,0h0Zm-303.19-2.67,0,0h0a.2.2,0,0,0,0-.07s0,0,0,.07a0,0,0,0,1,0,0Zm-.1-.12v0ZM331.28,768.55a12.51,12.51,0,0,0-6-1,2.52,2.52,0,0,1-2.52-1.39c-6.07-11.21-39.93-73.86-45.25-83.7a2.3,2.3,0,0,1,.1-2.36l0-.07.17-.25a6.4,6.4,0,0,0,.37-.63l0,0s.25-.45.3-.58,0,0,0-.05c.14-.28.21-.4.47-1,0,0,0-.09,0-.12a5.45,5.45,0,0,0,.22-.51,2.27,2.27,0,0,0,.08-.25,8,8,0,0,0,.27-.88s0-.06,0-.09.09-.37.12-.45a.2.2,0,0,0,0-.1l.09-.36a1.38,1.38,0,0,0,.05-.27l.11-.55c0-.36.08-.52.11-.94v-.09c0-.19.05-.61.05-.61v-.67a4.86,4.86,0,0,0,0-1.3c0-.4-.09-.8-.14-1.19a9.86,9.86,0,0,0-.19-1.12s-.17-.61-.17-.64a1.51,1.51,0,0,0-.05-.27s0-.06,0-.09l37.92-30.66a2.73,2.73,0,0,1,3.31-.16,13.45,13.45,0,0,0,7.47,2.47h.3A14.12,14.12,0,0,0,339,633.4a2.81,2.81,0,0,1,3.07-.94c10.52,3.52,61.55,20.61,69.93,23.4a2.29,2.29,0,0,1,1.41,1.64s.07.28.24.86c0,0,.11.39.41,1.15,0,0,.05.12.13.3s.19.43.19.43l.11.24a2.23,2.23,0,0,1,.14.27.44.44,0,0,1,0,.43L334.68,767.61a2.74,2.74,0,0,1-3.37.94ZM316.2,620.87v0Zm26.6,3c-.05,0-.05,0-.05-.09.05-.94,0-2.43,0-2.7a.32.32,0,0,0,0-.16,15.84,15.84,0,0,0-.41-2.48,3.58,3.58,0,0,1,1.2-3.65c9.56-7.31,52.9-40.53,61.06-46.72a2.43,2.43,0,0,1,2.58-.33v0a3.08,3.08,0,0,1,1.74,2.43c1.6,10.81,9.56,64.57,10.54,71.1a1,1,0,0,1-.41,1c-.49.33-.37.24-.92.64v0a8,8,0,0,0-.89.79,1.79,1.79,0,0,0-.39.4s0,0-.14.12l0,.06c-.09.09-.39.43-.6.7a.1.1,0,0,1,0,.06l-.2.21c0,.09.09-.09-.29.46-.08.09.08-.16-.41.6l-.46.82c-.11.25-.05.09-.19.37a.4.4,0,0,1-.49.24C408.76,646,345,624.66,342.8,623.9Zm75.77-64.78,0,0v0ZM403,558.94v0ZM272,658a3.44,3.44,0,0,1-1.91-2.94c-.62-13.15-3.75-78.63-5-104.61a3.36,3.36,0,0,1,1.93-3.31,2.83,2.83,0,0,1,3.43,1.09c11.95,17.12,38.58,55.25,44.62,63.88a3.7,3.7,0,0,1,.32,3.48,12.34,12.34,0,0,0-.54,1.43,18.27,18.27,0,0,0-.55,9,3.52,3.52,0,0,1-1.17,3.42L277,658.72a2.71,2.71,0,0,1-3.23.21A10.86,10.86,0,0,0,272,658ZM256,535.86l.06,0A.08.08,0,0,0,256,535.86Zm0,0v0h0l0,0Zm-.08-.06.06,0A.1.1,0,0,0,255.9,535.8Zm14.32-8.17v0l0,0s0,0,0,0v0Zm0-.11v0ZM250,523.9v0Zm0-.15v0Zm6.14-8.92v0Zm0,0s.06,0,.06,0h0A.09.09,0,0,1,256.17,514.83Zm.17-.06h0ZM597.19,688.92a3.41,3.41,0,0,1-1.3-3,16,16,0,0,0-2.45-9.74,12.68,12.68,0,0,0-4.81-4.38,3.37,3.37,0,0,1-1.74-3v-162a1.94,1.94,0,0,1,1-1.76,1.55,1.55,0,0,1,1.79.4c10.73,11.62,125.47,135.79,137,148.29a2.69,2.69,0,0,1,.63,2.31v0c0,.09-.06.36-.11.57v.16a6.1,6.1,0,0,0-.08.69v.09a7.56,7.56,0,0,0-.06,1.13v.7a13.09,13.09,0,0,0,.14,1.39s.05.4.08.67c0,0,.08.33.11.55,0,0,.14.58.24,1,0,.09.27.85.49,1.39,0,0,0,.07.08.22a2.4,2.4,0,0,1,.17.36c-.14.12-54.19,47.33-64.54,56.34a2.79,2.79,0,0,1-3.35.28,11,11,0,0,0-2.93-1.37,12.56,12.56,0,0,0-11.71,2.4,2.47,2.47,0,0,1-3.13.09C635.21,717.09,604.5,694.36,597.19,688.92ZM579,502.84l0,0S579,502.87,579,502.84Zm-.06,0h0s0,0,0,0h0l0,0Zm-96.72-4.13v0Zm.06-.09a.2.2,0,0,1,0-.07s0,0,0,.07,0,0,0,.06A.1.1,0,0,0,482.27,498.62Zm.05-.13a0,0,0,0,1,0,0ZM730.73,646.24C716.16,630.49,600.8,505.66,594.45,498.77a.62.62,0,0,1-.11-.67,5.61,5.61,0,0,1,.24-.66c0-.07,0-.16.06-.22l.27-.85c0-.12,0,.13.13-.57a.25.25,0,0,1,.22-.22c5.52-.24,133.67-5.92,136-6,0,0,.06,0,.06,0s0,.1.16.3c0,0,.19.37.35.64l.46.67a.65.65,0,0,0,.11.15,8.59,8.59,0,0,0,.6.73,9,9,0,0,0,1.41,1.24.1.1,0,0,0,.08,0s0,0,.06.07a2.74,2.74,0,0,1,1.14,2.27c0,15.15-.27,131.33-.33,148.33a3.13,3.13,0,0,1-1.55,2.76,2.59,2.59,0,0,1-3.15-.55ZM345.34,486.87h0Zm0,0h0v0h0l0,0Zm-.11-.06,0,0Zm137.2-.09v0Zm0-.13,0,0,0-.06a.11.11,0,0,1,0,.09s0,0,0,.07Zm263.35-.11v0ZM414.25,546.82a9,9,0,0,0-5.82-.33,2.82,2.82,0,0,1-3-1.09c-7.09-9.47-40.92-54.59-45.4-60.56a1.33,1.33,0,0,1-.12-1.37l0,0a.67.67,0,0,1,.66-.34c6.38.82,81.63,10.63,94.92,12.36a3,3,0,0,1,2.47,2.22,2.3,2.3,0,0,1,.13.42,3.58,3.58,0,0,1-.7,3.52c-7.14,7.65-37.75,40.41-42,45a.91.91,0,0,1-1.11.24ZM579.15,482h0Zm0,0,0,0s.06,0,.06,0l0,0h0S579.18,482,579.18,482Zm.13-.06h0Zm-239.9-6.83v0Zm17-6.68,0,0,0,0,0,0S356.45,468.44,356.45,468.41Zm-.06-.06,0,0v0Zm301.92-17.06h.16a11.47,11.47,0,0,0,5.11-1.28,13.39,13.39,0,0,0,2.09-1.36h0a.45.45,0,0,1,.57-.06c3.2,1.88,30.9,18.18,46.11,27.11a3.48,3.48,0,0,1,1.53,3.7,3.09,3.09,0,0,1-2.8,2.61l-103.27,4.58a3,3,0,0,1-3-2.36,3.58,3.58,0,0,1,1.25-3.83c13.35-9.47,36.93-26.23,43.24-30.69a2.7,2.7,0,0,1,3-.12A11.67,11.67,0,0,0,658.31,451.29ZM654.15,448l.05,0S654.18,448,654.15,448Zm0,0h-.06s0,0-.05,0a.06.06,0,0,1,.05,0Zm14.43-8.32v0Zm0-.12v0Zm-20.55-3.7v0Zm0-.06h0l0,.06Zm0-.06v0ZM484.52,486.23a15,15,0,0,0-1.77-3.4,3.76,3.76,0,0,1-.18-3.74l30.76-57.92a2.21,2.21,0,0,1,1.95-1.21h0a5.05,5.05,0,0,0,.68-.06,2.83,2.83,0,0,1,2.42,1.1c7.36,9,50.9,62.2,53.51,65.38a.43.43,0,0,1,.06.34v0a2.38,2.38,0,0,1-2.13,1.48H487.3a3,3,0,0,1-2.75-2ZM335.42,608.57a13.3,13.3,0,0,0-9.9-1.7,11,11,0,0,0-1.62.48,2.78,2.78,0,0,1-3.3-1.12c-7.88-11.23-46.33-66.3-50.27-72a.85.85,0,0,1,0-.94c0-.07.3-.49.49-.83.28-.54.63-1.36.71-1.51s0-.07,0-.07a8.88,8.88,0,0,0,.33-1s.22-.75.36-1.3c0-.06,0-.12,0-.18s.11-.55.14-.64v-.12a11.4,11.4,0,0,0,.14-1.31v-.15c0-.21,0-.73,0-.73,0-.48,0-1,0-1.06a11,11,0,0,0-.17-1.36.42.42,0,0,0,0-.19,5.08,5.08,0,0,0-.1-.64s0-.06,0-.09a12.46,12.46,0,0,0-.41-1.48v0c0-.1-.13-.37-.22-.61a.75.75,0,0,1-.05-.16c-.08-.18-.33-.72-.35-.81a13.26,13.26,0,0,0-1.07-1.91l-.75-1a1,1,0,0,0-.14-.18,0,0,0,0,1,0,0,.29.29,0,0,1-.05-.36c2.06-4.41,37.91-80.18,44.43-93.9a2.89,2.89,0,0,1,2.9-1.79,8.59,8.59,0,0,0,1.23.09h.24a2.32,2.32,0,0,0,.44,0,3,3,0,0,1,2.8,1.91c3.86,8.9,18.64,42.9,19.57,45.05a.22.22,0,0,1,0,.18s0,0-.06,0a1,1,0,0,1-.16.22s0,0,0,0a11.8,11.8,0,0,0-1.09,1.52l-.37.64a.11.11,0,0,1,0,.09l-.19.36,0,0c0,.06-.13.28-.16.33v0a10.56,10.56,0,0,0-.46,1.1c-.08.27-.11.27-.36,1.21a4.83,4.83,0,0,0-.27,1.13c-.05.27-.05.24-.19,1.45l0,.33c0,.61,0,1.25,0,1.86l0,.51a6.46,6.46,0,0,0,.22,1.43c0,.06.16.79.16.82.16.61.33,1.18.54,1.76l.33.73a5.23,5.23,0,0,0,.27.58l.19.36a0,0,0,0,0,0,0,12.49,12.49,0,0,0,1.39,2.07l.13.17.46.53.22.21s0,0,0,0a10.94,10.94,0,0,0,1.9,1.57,1.08,1.08,0,0,0,.33.21,11.15,11.15,0,0,0,5.87,1.74h.16a9,9,0,0,0,2.36-.31,2.92,2.92,0,0,1,2.94,1.13c7.25,9.68,44.45,59.29,46.57,62.11a.28.28,0,0,1,0,.27A15.89,15.89,0,0,0,401,555s0,.09,0,.12a3.84,3.84,0,0,0-.08.55s0,0,0,.06a7.8,7.8,0,0,0-.08,1.18s0,.43,0,.54v.07c0,.52.05,1,.11,1.52,0,0,.08.48.11.58v.06a1.43,1.43,0,0,1-.47,1.3c-6.08,4.64-52.69,40.34-62,47.45a2.68,2.68,0,0,1-3.12.18ZM522.54,411v0Zm-193.62-.94h0Zm186.48-8.84h0Zm74,79.44A11.33,11.33,0,0,0,579,479.58a2.75,2.75,0,0,1-3.18-.87c-7.69-9.38-44-53.77-51.11-62.51a3.25,3.25,0,0,1-.55-3.1c.16-.45.35-1.37.35-1.37a6,6,0,0,0,.2-1.3c0-.09,0-.18,0-.31V410c0-.19,0-.58,0-.89s0-.33,0-.72c0-.09,0-.19,0-.28a.35.35,0,0,0,0-.15c0-.12-.06-.43-.06-.49a.13.13,0,0,0,0-.08,2.2,2.2,0,0,0-.09-.43,3.7,3.7,0,0,1,.84-3.12l49.3-53.35a2.81,2.81,0,0,1,3.18-.72,13,13,0,0,0,5.17,1.12h0a.81.81,0,0,0,.27,0,12.22,12.22,0,0,0,3.8-.64,2.84,2.84,0,0,1,3.18,1.13c8.5,11.71,54.68,75.37,57.15,78.8a.24.24,0,0,1,0,.3c-.16.31-.21.43-.48,1.07a8.64,8.64,0,0,0-.33.94,7,7,0,0,0-.22.7.07.07,0,0,0,0,.06,2.08,2.08,0,0,1-.12.43v.08a1.73,1.73,0,0,1-.1.37c-.08.52-.17,1-.17,1.13a12.22,12.22,0,0,0-.13,1.24v1c0,.27,0,.45,0,.88,0,.06.05.67.1,1.16,0,0,.11.69.22,1.18,0,0,0,.18.08.33s.06.18.17.58a.11.11,0,0,1-.06.15L591.29,481a1.22,1.22,0,0,1-1.49,0Zm-227.89-5.94v0a9.51,9.51,0,0,0-.22-1.25,12.08,12.08,0,0,0-.57-2.06c0-.07-.16-.4-.27-.7-.05-.06-.16-.31-.22-.42s-.05-.13-.05-.16l-.33-.6c0-.07,0-.07-.05-.1a12,12,0,0,0-1.34-2s0-.06-.05-.06a2.16,2.16,0,0,0-.16-.22l0,0a11.84,11.84,0,0,0-1.17-1.18c-.3-.27-.78-.67-.92-.76s-.06,0-.06-.05a11.33,11.33,0,0,0-1.93-1.13,11,11,0,0,0-4.89-1.07,2.93,2.93,0,0,1-2.74-1.88c-3.34-7.7-15.06-34.73-18.48-42.65a3.61,3.61,0,0,1,.49-3.73,13,13,0,0,0,1.46-2.09,20.43,20.43,0,0,0,2.26-11.36c0-.06,0-.12.05-.12,3-1.49,106.48-51.91,118.44-57.74a1.73,1.73,0,0,1,2,.31s.54.45.95.75l.06,0a9.37,9.37,0,0,0,5.24,1.7h.19a7.83,7.83,0,0,0,1.63-.17,2.81,2.81,0,0,1,2.85,1.18c6.36,8.71,36.18,49.54,41.91,57.37a3.8,3.8,0,0,1,.6,2.86c-.09.42-.14.81-.17,1a.83.83,0,0,0,0,.27,15.27,15.27,0,0,0,0,1.79l0,.25a11.63,11.63,0,0,0,.68,2.82,4.3,4.3,0,0,0,.27.66s.27.55.36.7a.11.11,0,0,0,0,.07,1.14,1.14,0,0,1,0,1c-2.86,5.38-26.12,49.21-31.39,59.11a2.93,2.93,0,0,1-2.94,1.61,10.45,10.45,0,0,0-3,0c-5.3.61-10,4.79-11.88,10.26a.48.48,0,0,1-.49.33C451.23,486.38,362,474.79,361.53,474.73ZM594.15,341.18v0Zm-125.5-.57a1.36,1.36,0,0,1-.16-1.28l0,0a.56.56,0,0,1,.54-.42h98.6a1.92,1.92,0,0,1,1.76,1.36c.11.31.22.58.32.88a3.58,3.58,0,0,1-.67,3.71c-7.86,8.5-42.37,45.87-49.33,53.36a2.76,2.76,0,0,1-2.63.91,8.55,8.55,0,0,0-3.7,0,2.7,2.7,0,0,1-2.88-1.12C503.82,388.81,472.7,346.17,468.65,340.61Zm-3.83-12.47h0v0Zm0,0,0,0S464.82,328.14,464.82,328.14ZM456,326.22s0,0,.06,0h0ZM732.61,478.07c-3.46-2-60.53-35.59-62.24-36.58,0,0,0-.06,0-.09v0a3.39,3.39,0,0,0,.12-.45.08.08,0,0,0,0-.07s.06-.27.14-.6v0s0-.21.11-.66c0,0,.11-.92.14-1.59,0,0,0-.3,0-.57v-.12c0-.09,0-.31,0-.52v-.12c0-.15,0-.55,0-.55a9,9,0,0,0-.14-1.06,2.28,2.28,0,0,0-.06-.42,4.15,4.15,0,0,0-.1-.58,3.4,3.4,0,0,0-.11-.43,3.22,3.22,0,0,0-.16-.57,5.14,5.14,0,0,0-.36-1.13h0l-.14-.39s0,0,0,0c-.13-.35-.29-.69-.35-.81a.44.44,0,0,0-.06-.1c0-.14-.27-.54-.27-.54l-.21-.36-.2-.34c-.21-.33-.27-.43-.4-.6a.22.22,0,0,1,0-.13c1.44-2.49,45.92-80.17,61.72-107.76a2.83,2.83,0,0,1,3.36-1.43,3.32,3.32,0,0,1,2.15,3.22c.09,35.76.3,143.86.3,152.69a.93.93,0,0,1-.44.83,10.23,10.23,0,0,0-1.11.72,9.92,9.92,0,0,0-1.25,1.16l0,0a.28.28,0,0,1-.28,0Zm15-180v0a.11.11,0,0,1,0,.07Zm-17-3.25s0,0,0,0v0s0,0,0,0Zm14.54-5.5h0a.07.07,0,0,0,0-.05s0,0,0,.05,0,0,0,0Zm-149,56.84a3.78,3.78,0,0,1-.3-3.71,11.59,11.59,0,0,0,.63-1.39s.16-.46.3-.83c0-.06.27-.94.43-1.64a23.13,23.13,0,0,0,.44-3.73,17.69,17.69,0,0,0-2.45-9.23v0a1.54,1.54,0,0,1,0-1.64c5.47-8.19,49.87-75.07,57.66-86.76a2.9,2.9,0,0,1,2.84-1.31,9.89,9.89,0,0,0,1.71.16h.16a10.76,10.76,0,0,0,5.08-1.34.65.65,0,0,1,.79.1c5,4.36,58,51.36,64.73,57.34a1.62,1.62,0,0,1,.49,1.52s0,.06,0,.06-.05.33-.08.54v0a2.4,2.4,0,0,0-.05.52,7.28,7.28,0,0,0-.08,1.3v.55c0,.42,0,.85.1,1.25,0,0,.08.54.11.64v.09c.08.42.19.81.3,1.21,0,0,.14.4.22.7l.38.94.33.7c.13.24.18.33.45.79a1.19,1.19,0,0,1,.12.18,2.07,2.07,0,0,1,.18.27.29.29,0,0,1,0,.34C728,308.55,671.6,407,663,422.06a2.89,2.89,0,0,1-2.9,1.49,11.62,11.62,0,0,0-5.14.42,2.77,2.77,0,0,1-3.1-1.12C644,412.07,604.09,357,596.21,346.17Zm70.71-121v0s0,0,0,.06A.09.09,0,0,1,666.92,225.13Zm0-.06v0ZM648,221.67a.1.1,0,0,1,0-.06v0A.1.1,0,0,1,648,221.67Zm5.79-8.47s0,0,.06,0a0,0,0,0,0,0,0l0,0h0Zm.14-.06h0Zm14.3,15.12s0,0,0-.06,0,0,0-.07.16-.45.19-.48a5.79,5.79,0,0,0,.27-.91s.11-.39.18-.73v-.09s0-.09.06-.18v0c0-.09.06-.37.11-.58V225c0-.09.06-.49.08-.76,0,0,0-.34,0-.64,0,0,0,0,0-.06v-1c0-.12,0-.49,0-.49a1.65,1.65,0,0,1,.62-1.45c6.23-4.49,51.75-37.61,60.69-44.11a2.76,2.76,0,0,1,3-.19,9.14,9.14,0,0,0,1.22.59,3.3,3.3,0,0,1,1.93,3.15c-.17,15.24-1,95.44-1.08,104.15a1.14,1.14,0,0,1-.63,1c-.36.18-.65.36-.65.36a1.33,1.33,0,0,1-1.47-.18C725.76,279.23,669.5,229.38,668.26,228.26Zm-80.42,91a1.5,1.5,0,0,1-.92-1.43V177.38a3.45,3.45,0,0,1,1.61-3,6.78,6.78,0,0,0,.78-.48.38.38,0,0,1,.43,0c3.38,2.76,46.45,37.89,55,44.86a3.67,3.67,0,0,1,1.23,3,12.86,12.86,0,0,0,0,2.4s0,.34.05.61,0,.39.14.85a5.9,5.9,0,0,0,.27,1.18,3,3,0,0,0,.14.46s.1.39.21.7c0,0,.16.36.27.63l.28.64.18.33a1.84,1.84,0,0,1-.1,1.79c-5.82,8.74-52.18,78.54-58,87.34a1.28,1.28,0,0,1-1.52.52Zm-8.66-146.63h0Zm-.06-.06.06,0S579.15,172.58,579.12,172.55Zm0,0,0,0a0,0,0,0,1,0,0h0s0,0,0,0Zm170.69-3.88v0Zm.05-.07v0s0,0,0,0l0,0s0,0,0,.06Zm.06-.11h0v0Zm-94.57,41.77A12.69,12.69,0,0,0,653,211l-.09,0c-.37.19-.84.46-.94.52s-.06,0-.09.06a11.68,11.68,0,0,0-1,.67,1.13,1.13,0,0,1-1.41,0c-6.25-5.1-50.49-41.19-54.95-44.81a.81.81,0,0,1-.22-.76l0,0a1.54,1.54,0,0,1,.06-.21v0a.43.43,0,0,1,.41-.36h130a1.83,1.83,0,0,1,1.68,1.36,2.18,2.18,0,0,1-.73,2.4c-8.24,6-54.43,39.58-59.73,43.44a.68.68,0,0,1-.93-.09A11,11,0,0,0,655.32,210.23Zm-81.83-49v-.06s0-.06,0-.06l0,0v.09Zm0-.18v0ZM750,157.19v0Zm0-.12h0V157s0,0,0,.06v0Zm-160.06-2.15a0,0,0,0,0,0,0,0,0,0,0,1,0,0s0,0,0,0Zm-10.52-2.25h0Zm0,0h.06s0,0,0,0a0,0,0,0,0,0,0h-.08Zm.17-.06h0ZM737.23,150s0,0,0,0h0A.06.06,0,0,1,737.23,150Z"/></svg>